<?xml version="1.0" encoding="UTF-8"?>
<svg width="65px" height="75px" viewBox="0 0 65 75" version="1.1" xmlns="http://www.w3.org/2000/svg" xmlns:xlink="http://www.w3.org/1999/xlink">
    <!-- Generator: sketchtool 50.2 (55047) - http://www.bohemiancoding.com/sketch -->
    <title>FBBC7FE1-4AD2-4C67-A909-E19B618DC73D</title>
    <desc>Created with sketchtool.</desc>
    <defs>
        <radialGradient cx="100%" cy="100%" fx="100%" fy="100%" r="102.52647%" gradientTransform="translate(1.000000,1.000000),scale(1.000000,0.868881),rotate(-132.098649),translate(-1.000000,-1.000000)" id="radialGradient-1">
            <stop stop-color="#C63232" offset="0%"></stop>
            <stop stop-color="#F5933B" offset="100%"></stop>
        </radialGradient>
    </defs>
    <g id="Home-Page" stroke="none" stroke-width="1" fill="none" fill-rule="evenodd">
        <g id="Home" transform="translate(-241.000000, -1568.000000)" fill="url(#radialGradient-1)" fill-rule="nonzero">
            <path d="M293.144035,1617.56128 L276.599386,1639.33053 L303.741057,1623.66028 L293.144035,1617.56128 Z M270.780821,1639.55149 L254.201398,1617.56461 L243.367378,1623.72434 L270.780821,1639.55149 Z M256.004538,1617.35302 L273.599962,1640.68286 L291.370538,1617.30495 L256.004538,1617.35302 Z M274.114942,1642.5743 C274.032477,1642.64717 273.937942,1642.69958 273.838116,1642.73155 C273.606007,1642.84314 273.332227,1642.83392 273.107004,1642.70389 L241.488231,1624.44878 C241.331025,1624.3848 241.193379,1624.2695 241.102981,1624.11051 C241.030905,1623.98374 240.998062,1623.84536 241.000593,1623.70942 L241.000593,1587.13255 C240.99945,1587.10343 240.999967,1587.07445 241.002074,1587.04574 C241.018134,1586.78459 241.16391,1586.54732 241.392334,1586.41544 L273.107004,1568.10497 C273.349414,1567.96501 273.648076,1567.96501 273.890486,1568.10497 L305.605156,1586.41544 C305.847566,1586.5554 305.996897,1586.81404 305.996897,1587.09396 L305.996897,1623.53648 C306.001009,1623.58259 306.001059,1623.62919 305.996897,1623.67573 L305.996897,1623.7149 C305.996897,1623.99481 305.847566,1624.25346 305.605156,1624.39342 L274.114942,1642.5743 Z M292.782472,1614.75079 L304.178771,1587.75462 L275.074073,1584.46063 L292.782472,1614.75079 Z M272.163302,1584.45256 L242.917735,1587.7625 L254.517109,1614.9375 L272.163302,1584.45256 Z M245.413765,1585.90304 L272.809949,1582.80241 L272.809949,1570.08585 L245.413765,1585.90304 Z M242.567557,1590.93362 L242.567557,1622.37656 L253.367669,1616.23611 L242.567557,1590.93362 Z M274.376912,1570.19518 L274.376912,1582.80476 L301.5236,1585.86833 L274.376912,1570.19518 Z M304.429934,1591.11175 L293.880123,1616.17971 L304.429934,1622.24909 L304.429934,1591.11175 Z M291.544373,1615.73775 L273.61584,1585.07105 L255.836341,1615.78628 L291.544373,1615.73775 Z" id="Combined-Shape"></path>
        </g>
    </g>
</svg>