<?xml version="1.0" encoding="UTF-8"?>
<svg width="11px" height="8px" viewBox="0 0 11 8" version="1.1" xmlns="http://www.w3.org/2000/svg" xmlns:xlink="http://www.w3.org/1999/xlink">
    <!-- Generator: sketchtool 50.2 (55047) - http://www.bohemiancoding.com/sketch -->
    <title>52AD9B11-FC18-4080-BF96-A948DC64C8FF</title>
    <desc>Created with sketchtool.</desc>
    <defs></defs>
    <g id="Join" stroke="none" stroke-width="1" fill="none" fill-rule="evenodd">
        <g id="Join-Auxnet-1/2" transform="translate(-357.000000, -179.000000)" fill="#656565">
            <g id="Folder_btn" transform="translate(356.000000, 178.000000)">
                <path d="M9.32680234,4 L7.17781702,6.16035391 C6.98307067,6.3561305 6.98390586,6.67271189 7.17968245,6.86745823 C7.37545904,7.06220457 7.69204043,7.06136939 7.88678677,6.8655928 L10.0441306,4.69683616 L10.0441306,6.01725299 C10.0441306,6.29339537 10.2679882,6.51725299 10.5441306,6.51725299 C10.820273,6.51725299 11.0441306,6.29339537 11.0441306,6.01725299 L11.0441306,3.5 C11.0441306,3.22385763 10.820273,3 10.5441306,3 L7.99895597,3 C7.7228136,3 7.49895597,3.22385763 7.49895597,3.5 C7.49895597,3.77614237 7.7228136,4 7.99895597,4 L9.32680234,4 Z M1.14132792,1.89443222 L1.8627628,1.1516405 C1.95691535,1.05470073 2.08629783,1 2.22143488,1 L5.79264128,1 C5.93049289,1 6.06222854,1.05691335 6.15671489,1.15728962 L6.83951637,1.88265428 C6.93400272,1.98303055 7.06573837,2.03994391 7.20358998,2.03994391 L11.5,2.03994391 C11.7761424,2.03994391 12,2.26380153 12,2.53994391 L12,8.5 C12,8.77614237 11.7761424,9 11.5,9 L1.5,9 C1.22385763,9 1,8.77614237 1,8.5 L1,2.24279171 C1,2.11270861 1.05069655,1.98774657 1.14132792,1.89443222 Z" id="Combined-Shape"></path>
            </g>
        </g>
    </g>
</svg>